<svg width="512" height="512" xmlns="http://www.w3.org/2000/svg">

 <g>
  <title>background</title>
  <rect fill="none" id="canvas_background" height="402" width="582" y="-1" x="-1"/>
 </g>
 <g>
  <title>Layer 1</title>
  <g stroke="null" id="svg_22">
   <g stroke="null" id="svg_23">
    <rect stroke="null" id="svg_24" height="25.067006" width="446.266991" y="384.067007" x="32.866501"/>
   </g>
  </g>
  <g id="svg_28"/>
  <g id="svg_29"/>
  <g id="svg_30"/>
  <g id="svg_31"/>
  <g id="svg_32"/>
  <g id="svg_33"/>
  <g id="svg_34"/>
  <g id="svg_35"/>
  <g id="svg_36"/>
  <g id="svg_37"/>
  <g id="svg_38"/>
  <g id="svg_39"/>
  <g id="svg_40"/>
  <g id="svg_41"/>
  <g id="svg_42"/>
  <g stroke="null" id="svg_45">
   <g stroke="null" id="svg_44">
    <rect fill="#999999" stroke="null" id="svg_43" height="28.067009" width="446.266991" y="434.067009" x="32.866499"/>
   </g>
  </g>
  <path stroke="#000" transform="rotate(-0.19673071801662445 256.0000000000188,186.86019897461367) " id="svg_47" d="m64.635318,58.766824l0,256.186765l382.729381,0l0,-256.186765l-382.729381,0zm322.484942,234.19742l-262.240503,0l0,-212.208074l262.240503,0l0,212.208074zm-198.452272,-129.045451c20.213781,0 36.614444,-13.271607 36.614444,-29.628835c0,-16.368698 -16.400663,-29.628835 -36.614444,-29.628835c-20.227957,0 -36.614445,13.271607 -36.614445,29.628835c0,16.357228 16.386487,29.628835 36.614445,29.628835zm184.291284,25.80909l-69.699272,-56.401465l-98.049597,79.342879l-27.173786,-21.989345l-39.010047,31.567385l0,59.2462l233.932703,0l0,-91.765654z" fill-opacity="null" stroke-opacity="null" stroke-width="10" fill="#fff"/>
 </g>
</svg>