<svg width="512" height="512" xmlns="http://www.w3.org/2000/svg">

 <g>
  <title>background</title>
  <rect fill="none" id="canvas_background" height="402" width="582" y="-1" x="-1"/>
 </g>
 <g>
  <title>Layer 1</title>
  <path id="svg_1" d="m442.5,419.2l-106.8,-107.8c20.9,-26.2 33.5,-59.4 33.5,-95.5c0,-84.5 -68.5,-153 -153.1,-153s-153.1,68.6 -153.1,153.1s68.5,153 153.1,153c36.6,0 70.1,-12.8 96.5,-34.2l106.1,107.1c3.2,3.4 7.6,5.1 11.9,5.1c4.1,0 8.2,-1.5 11.3,-4.5c6.6,-6.3 6.8,-16.7 0.6,-23.3zm-226.4,-83.1c-32.1,0 -62.3,-12.5 -85,-35.2c-22.7,-22.7 -35.2,-52.9 -35.2,-84.9c0,-32.1 12.5,-62.3 35.2,-84.9c22.7,-22.7 52.9,-35.2 85,-35.2s62.3,12.5 85,35.2c22.7,22.7 35.2,52.9 35.2,84.9c0,32.1 -12.5,62.3 -35.2,84.9c-22.7,22.7 -52.9,35.2 -85,35.2z"/>
  <path id="svg_3" d="m262.18749,403.624338l0,0c0,-0.41145 0.333548,-0.744998 0.745,-0.744998l0,0c0.197589,0 0.387085,0.078491 0.526795,0.218206c0.139716,0.139715 0.218206,0.329209 0.218206,0.526793l0,0c0,0.411455 -0.333546,0.745001 -0.745001,0.745001l0,0c-0.411451,0 -0.745,-0.333546 -0.745,-0.745001l0,0zm1.203006,0.333275l0,0c0.164024,-0.225419 0.139643,-0.536672 -0.057484,-0.733795c-0.197126,-0.197125 -0.508379,-0.221507 -0.733792,-0.057481l0.791276,0.791276zm-0.916008,-0.666544c-0.164026,0.225418 -0.139644,0.536671 0.057481,0.733791c0.197124,0.197126 0.508377,0.221508 0.733791,0.057484l-0.791271,-0.791275l0,0z" stroke-width="1.5" stroke="#000" fill="#fff"/>
 </g>
</svg>